<svg xmlns="http://www.w3.org/2000/svg" viewBox="0 0 100 100" width="400px" height="200px"><g class="nc-icon-wrapper"><defs/><circle class="a" cx="48.743" cy="50" r="40" fill="#3bd6c6" stroke-miterlimit="10" stroke="#3bd6c6"/><circle class="b" cx="48.743" cy="50" r="40" stroke="#3bd6c6" fill="none" stroke-linecap="round" stroke-linejoin="round"/><path class="c" d="M27.933 77.374a2.137 2.137 0 0 0 1.814 2.211c4.548.689 10.96-.741 15.6-3.478a2.137 2.137 0 0 0-2.174-3.679c-3.74 2.209-9.234 3.47-12.78 2.932a2.137 2.137 0 0 0-2.433 1.792 1.416 1.416 0 0 0-.027.222z" stroke-linecap="round" stroke-linejoin="round" fill="#ffb59e" stroke="#45413c"/><path class="d" d="M49.04 80.463a2.121 2.121 0 0 1-2.23 2.03c-.48-.02-1.14-.05-1.91-.1-1.91-.1-4.52-.24-6.21-.28-9.33-.23-15.74-5.46-22.48-7.04a6.571 6.571 0 0 0-1.71-.16H6.89V63.3h4.52a34.588 34.588 0 0 1 3.88-1.02l2.88-.59c8.7-1.86 14.37.79 18.47 2.51a2.189 2.189 0 0 1 1.34 2.5 2.152 2.152 0 0 1-2.9 1.48c-16.36-6.03-10.21 8.81 3.72 9.66 1.75.04 4.39.19 6.32.29.76.04 1.42.07 1.89.1a2.121 2.121 0 0 1 2.03 2.233z" style="" fill="#ffcebf"/><path class="e" d="M6.89 63.3h4.52a34.588 34.588 0 0 1 3.88-1.02l2.88-.59c8.7-1.86 14.37.79 18.47 2.51a2.189 2.189 0 0 1 1.34 2.5 2.152 2.152 0 0 1-2.9 1.48c-16.36-6.03-10.21 8.81 3.72 9.66 1.75.04 4.39.19 6.32.29.76.04 1.42.07 1.89.1a2.132 2.132 0 1 1-.2 4.26c-.48-.02-1.14-.05-1.91-.1-1.91-.1-4.52-.24-6.21-.28-9.33-.23-15.74-5.46-22.48-7.04a6.571 6.571 0 0 0-1.71-.16H6.89" fill="none" stroke-linecap="round" stroke-linejoin="round" stroke="#45413c"/><path class="f" d="M47.484 68.763a1.358 1.358 0 0 0 1.533 0C64.5 58.151 67.471 52.7 67.465 45.436a11.031 11.031 0 0 0-4.6-8.581c-7.125-5.327-12.46 2.268-14.614 4.713-1.51-1.715-7.234-10.229-14.614-4.713a11.031 11.031 0 0 0-4.6 8.581C29.026 52.7 32 58.151 47.484 68.763z" style="" fill="#ff6242"/><path class="g" d="M67.167 49a11.5 11.5 0 0 0-4.3-6.314c-7.127-5.327-12.462 2.267-14.615 4.714-1.511-1.716-7.235-10.23-14.615-4.714A11.518 11.518 0 0 0 29.331 49a19.2 19.2 0 0 1-.3-3.561 11.031 11.031 0 0 1 4.6-8.581c7.38-5.516 13.1 3 14.614 4.713 2.154-2.445 7.489-10.04 14.614-4.713a11.031 11.031 0 0 1 4.6 8.581A19.314 19.314 0 0 1 67.167 49z" style="" fill="#ff866e"/><path class="e" d="M47.484 68.763a1.358 1.358 0 0 0 1.533 0C64.5 58.151 67.471 52.7 67.465 45.436a11.031 11.031 0 0 0-4.6-8.581c-7.125-5.327-12.46 2.268-14.614 4.713-1.51-1.715-7.234-10.229-14.614-4.713a11.031 11.031 0 0 0-4.6 8.581C29.026 52.7 32 58.151 47.484 68.763z" fill="none" stroke-linecap="round" stroke-linejoin="round" stroke="#45413c"/><path class="h" d="M51.368 59.5a1.915 1.915 0 0 1-.3-.024 2.307 2.307 0 0 1-1.817-2.02l-1.075-6.3-.932 3.114a2.2 2.2 0 0 1-1.825 1.667 1.968 1.968 0 0 1-.2.011 2.114 2.114 0 0 1-1.933-1.434L42.6 52.8l-.317.707a2.079 2.079 0 0 1-1.883 1.33l-5-.078a1.5 1.5 0 0 1 0-3l4.359.068 1.007-2.249a2.1 2.1 0 0 1 1.884-1.326 2.14 2.14 0 0 1 1.947 1.434l.506 1.271 1.287-4.3a2.161 2.161 0 0 1 2.01-1.679 1.95 1.95 0 0 1 .3.024 2.308 2.308 0 0 1 1.816 2.021l1.078 6.323a2.132 2.132 0 0 1 1.967-1.509h6.86a1.5 1.5 0 0 1 0 3h-6.143l-.9 2.987a2.163 2.163 0 0 1-2.01 1.676z" stroke-linecap="round" stroke-linejoin="round" fill="#fff" stroke="#e04122"/><path class="c" d="M75.756 24.37a2.137 2.137 0 0 0-1.415-2.485c-4.367-1.446-10.928-1.117-15.958.8a2.136 2.136 0 1 0 1.523 3.992c4.058-1.548 9.686-1.865 13.091-.737a2.139 2.139 0 0 0 2.759-1.571z" stroke-linecap="round" stroke-linejoin="round" fill="#ffb59e" stroke="#45413c"/><path class="d" d="M93.11 29.113v11.61h-1.68a37.083 37.083 0 0 1-5.76.66l-2.94.09c-8.88.36-14.02-3.2-17.77-5.58a2.221 2.221 0 0 1-.91-2.7 2.141 2.141 0 0 1 3.11-.96c15.11 8.69 11.55-6.98-2.04-10.16-1.71-.33-4.3-.92-6.18-1.35-.74-.16-1.39-.31-1.84-.41a2.135 2.135 0 1 1 .92-4.17c.46.1 1.11.25 1.86.42 1.86.42 4.41 1 6.07 1.32 9.16 1.81 14.6 8.03 20.97 10.73a6.65 6.65 0 0 0 2.44.5z" style="" fill="#ffcebf"/><path class="e" d="M93.11 40.723h-1.68a37.083 37.083 0 0 1-5.76.66l-2.94.09c-8.88.36-14.02-3.2-17.77-5.58a2.221 2.221 0 0 1-.91-2.7 2.141 2.141 0 0 1 3.11-.96c15.11 8.69 11.55-6.98-2.04-10.16-1.71-.33-4.3-.92-6.18-1.35-.74-.16-1.39-.31-1.84-.41a2.135 2.135 0 1 1 .92-4.17c.46.1 1.11.25 1.86.42 1.86.42 4.41 1 6.07 1.32 9.16 1.81 14.6 8.03 20.97 10.73a6.65 6.65 0 0 0 2.44.5h3.75" fill="none" stroke-linecap="round" stroke-linejoin="round" stroke="#45413c"/></g></svg>